/* XPM */
static char *result[] = {
/* columns rows colors chars-per-pixel */
"60 30 5 1 ",
"  c #193D3F",
". c #23F023",
"X c #63C64D",
"o c None",
"O c #80FF80",
/* pixels */
"oooooooooooooooooooooooooooooooooooooOOOOOOooooooooooooooooo",
"oooooooooooooooooooooooooooooooooooOOOXXXXOOOooooooooooooooo",
"ooooooooooooooooooooooooooooooooooOOXXXXXXX.OOoooooooooooooo",
"ooooooooooooooooooooooooooooooooooOXXXXXXOO..OOooooooooooooo",
"ooooooooooooooooooooooooooooooooooOX XX XOO...Oooooooooooooo",
"ooooooooooooooooooooooooooooooooooOX XX XXX....OOOoooooooooo",
"ooooooooooooooooooooooooooooooooooOXXXXXXX.O.O....Oooooooooo",
"oooooooooooooooooooooooooooooooooOO.XXXXX....O.XX..Ooooooooo",
"ooooooooooooooooooooooooooooooooOOO..........O.XXO..Oooooooo",
"ooooooooooooooooooooooooooooooooOO.O.X.X.X..O..OXX..OOoooooo",
"ooooooooooooooooooooooooooooooooOO.OO......O...O..X..Ooooooo",
"oooooooooooooooooooooooooooooooOOO..OO.X.OOO....O..X.OOooooo",
"oooooooooooooooooooooooooooooooO.OX....X....X...OO....Oooooo",
"oooooooooooooooooooooooooooooooO.O.XXX.X.XXXOO...OO.X.Oooooo",
"oooooooooooooooooooooooooooooooO.OX....X....OO...OO.X.Oooooo",
"oooooooooooooooooooooooooooooooO.OOOXX.OOXXX....OOO.XOOooooo",
"ooooooooooooooooooooooooooooooOO..OO...OO..O....OoO.X.Oooooo",
"oooooooooooooooooooooooooooooO.XX.OOXX.X.XXX...OOoO....Ooooo",
"ooooooooooooooooooooooooooooOXXXXX.O...X.O.....OoOO....Ooooo",
"oooooooooooooooooooooooooooOX.OXXX.O..........OooO.XXX.Ooooo",
"oooooooooooooooooooooooooooO.X.XXOOOOOOOOOOOOOOoOOXXXXXOoooo",
"oooooooooooooooooooooooooooOX.X.XOOO.XXXXXXX..OOOX.XOOXOoooo",
"ooooooooooooooooooooooooooooOOOOOoOO.XXXXXXX..OOX..XOO.Ooooo",
"ooooooooooooooooooooooooooooOoOoooOOOOOOOOOOOOOOO.XX.XOOoooo",
"oooooooooooooooooooooooooooooOoOooO....O.XX....OOOX.XOooOooo",
"ooooooooooooooooooooooooooooooOoooOO..O..X...OOOOOOOOOoooooo",
"oooooooooooooooooooooooooooooooOoooOO.OXXXO.OOOOoOooOOoooooo",
"ooooooooooooooooooooooooooooooooooooO.OXXX.OOOoOooOooOOooooo",
"oooooooooooooooooooooooooooooooooooooOOOOOOOOoooOooooooOoooo",
"oooooooooooooooooooooooooooooooooooooOOX...OOooooOoooooooooo"
};
