/* XPM */
static char *result[] = {
/* columns rows colors chars-per-pixel */
"60 30 5 1 ",
"  c #193D3F",
". c #23F023",
"X c #63C64D",
"o c None",
"O c #80FF80",
/* pixels */
"ooooooooooooooooooooooooooooooooooOOOOOOoooooooooooooooooooo",
"ooooooooooooooooooooooooooooooooOOO....OOOoooooooooooooooooo",
"oooooooooooooooooooooooooooooooOOXXXXX...OOooooooooooooooooo",
"oooooooooooooooooooooooooooooooOXXXXXXOO..OOoooooooooooooooo",
"oooooooooooooooooooooooooooooooOXXXXXXOO...Ooooooooooooooooo",
"oooooooooooooooooooooooooooooooO XX XXXX....oooooooooooooooo",
"oooooooooooooooooooooooooooooooO XX XXXXO.OOOooooooooooooooo",
"oooooooooooooooooooooooooooooooOXXXXXXX..O...Ooooooooooooooo",
"ooooooooooooooooooooooooooooooOOXXXXXX...XXX..Oooooooooooooo",
"oooooooooooooooooooooooooooooOOO........OXXX.O.Ooooooooooooo",
"oooooooooooooooooooooooooooooOO.O.X.X.X.OOX.X..OOooooooooooo",
"oooooooooooooooooooooooooooooOO..OO.......O..X..Oooooooooooo",
"oooooooooooooooooooooooooooooOO............O..X.OOoooooooooo",
"oooooooooooooooooooooooooooooOO....X....X..OO....Ooooooooooo",
"ooooooooooooooooooooooooooooooOXXX.X.XXX..OO.O.X.OOooooooooo",
"ooooooooooooooooooooooooooooooOO...XOO..X.OO.O.XO.Oooooooooo",
"ooooooooooooooooooooooooooooooOOXX.XOOXX.....O.X..Oooooooooo",
"oooooooooooooooooooooooooooooOOOO..X....XO...O.X..Oooooooooo",
"ooooooooooooooooooooooooooooO.X.OX.X.OXX..OOO.....Oooooooooo",
"oooooooooooooooooooooooooooOXXO.O..X......O.XXX..Ooooooooooo",
"ooooooooooooooooooooooooooOX.XXOOOOOOOOOOOOXXXOOOOoooooooooo",
"ooooooooooooooooooooooooooO.X.XOO.XXXXXXOOX.XXOOOooooooooooo",
"ooooooooooooooooooooooooooOX.X.OO.XXXXXXOX..XXX.Oooooooooooo",
"ooooooooooooooooooooooooooOOOOOOOOOOOOOOOO.XX.XOOooooooooooo",
"ooooooooooooooooooooooooooOoOooO....X...OOOX.XOooooooooooooo",
"ooooooooooooooooooooooooooOoOoooO...X...OOOOOOOooooooooooooo",
"ooooooooooooooooooooooooooOoooooO..X..O.O.O.OOOooooooooooooo",
"ooooooooooooooooooooooooooOoooooO..X.OOXOXO.Oooooooooooooooo",
"ooooooooooooooooooooooooooOoooooO.XXXOOXXXOOOOoooooooooooooo",
"ooooooooooooooooooooooooooooooooO.XXXOO....OOoOooooooooooooo"
};
