/* XPM */
static char *result[] = {
/* columns rows colors chars-per-pixel */
"60 30 5 1 ",
"  c #193D3F",
". c #23F023",
"X c #63C64D",
"o c None",
"O c #80FF80",
/* pixels */
"ooooooooooooooooooooooooooooooOOOOOOoooooooooooooooooooooooo",
"ooooooooooooooooooooooooooooOOO....OOOoooooooooooooooooooooo",
"oooooooooooooooooooooooooooOOXXXXXOO.OOooooooooooooooooooooo",
"oooooooooooooooooooooooooooOXXXXXXOO..OOoooooooooooooooooooo",
"oooooooooooooooooooooooooooOXXXXXXXX...Ooooooooooooooooooooo",
"oooooooooooooooooooooooooooO XX XXXXO...oooooooooooooooooooo",
"oooooooooooooooooooooooooooO XX XXXX..OOOooooooooooooooooooo",
"oooooooooooooooooooooooooooOXXXXXXX......Ooooooooooooooooooo",
"oooooooooooooooooooooooooooOXXXXXX....XX..Oooooooooooooooooo",
"ooooooooooooooooooooooooooooO........OXX.O.Ooooooooooooooooo",
"oooooooooooooooooooooooooooOOX.X.X..O.OXX..OOooooooooooooooo",
"ooooooooooooooooooooooooooO..OO...OOO.O..X...Ooooooooooooooo",
"ooooooooooooooooooooooooooO............O..X..OOooooooooooooo",
"ooooooooooooooooooooooooooO....X....XOOOO.....Oooooooooooooo",
"ooooooooooooooooooooooooooOXXX.X.XXX.OO.OO.X..Oooooooooooooo",
"ooooooooooooooooooooooooooOOO..XOO..X...OO.XO.Oooooooooooooo",
"oooooooooooooooooooooooooooOXX.XOOXX....O..X.Ooooooooooooooo",
"oooooooooooooooooooooooooooOO..X....OOOO...XOOoooooooooooooo",
"ooooooooooooooooooooooooooO.OX.X.XOOO.XXX..OOooooooooooooooo",
"oooooooooooooooooooooooooOX.O..X...OXXXXX.OOoooooooooooooooo",
"ooooooooooooooooooooooooOX.OOOOOOOOXX.XOOXOooooooooooooooooo",
"ooooooooooooooooooooooooO.XOO.XXXXO..XXOOOoooooooooooooooooo",
"ooooooooooooooooooooooooOX.OO.XXXXOOXX.X.Ooooooooooooooooooo",
"oooooooooooooooooooooooOoOOOOOOOOOOOX.XXOOoooooooooooooooooo",
"ooooooooooooooooooooooOooOoO....X..OOOOOoooooooooooooooooooo",
"oooooooooooooooooooooooooOooO..XX..X..Oooooooooooooooooooooo",
"ooooooooooooooooooooooooOoooOXXX....X.Oooooooooooooooooooooo",
"ooooooooooooooooooooooooooooOXXX.OOXX..Ooooooooooooooooooooo",
"ooooooooooooooooooooooooooOOO.X...OXX..Ooooooooooooooooooooo",
"ooooooooooooooooooooooooooOXXXX.O.O..X.OOooooooooooooooooooo"
};
