/* XPM */
static char *result[] = {
/* columns rows colors chars-per-pixel */
"60 30 5 1 ",
"  c #193D3F",
". c #23F023",
"X c #63C64D",
"o c None",
"O c #80FF80",
/* pixels */
"ooooooooooooooooooooooooooOOOOOOoooooooooooooooooooooooooooo",
"ooooooooooooooooooooooooOOOXXX.OOOoooooooooooooooooooooooooo",
"oooooooooooooooooooooooOOXXXXXOO.OOooooooooooooooooooooooooo",
"oooooooooooooooooooooooOXXXXXXOO..OOoooooooooooooooooooooooo",
"oooooooooooooooooooooooO XX XXXX...Ooooooooooooooooooooooooo",
"oooooooooooooooooooooooO XX XXXXO...oooooooooooooooooooooooo",
"oooooooooooooooooooooooOXXXXXXX.....Oooooooooooooooooooooooo",
"oooooooooooooooooooooooOXXXXXX.....OOOoooooooooooooooooooooo",
"ooooooooooooooooooooooOO..........OO..Oooooooooooooooooooooo",
"oooooooooooooooooooooOOOOX.X.X...OOX.O.Ooooooooooooooooooooo",
"oooooooooooooooooooooOO.OO......O.OXX..Ooooooooooooooooooooo",
"ooooooooooooooooooooooO..OOX..OOO.O..X..Oooooooooooooooooooo",
"ooooooooooooooooooooooO....X....XOOO..X.OOoooooooooooooooooo",
"ooooooooooooooooooooooOXXX.X.XXX.OOOO....Ooooooooooooooooooo",
"ooooooooooooooooooooooOOO..XOO..X...OO.O.Ooooooooooooooooooo",
"ooooooooooooooooooooooOOXX.XOOXXOOO.OO.X.Ooooooooooooooooooo",
"oooooooooooooooooooooooOO..X...OOXXXO.X.OOoooooooooooooooooo",
"oooooooooooooooooooooooOOX.X..OOX.XXXX.OOOoooooooooooooooooo",
"ooooooooooooooooooooooooO..X..O.XXOOXX.OOooooooooooooooooooo",
"ooooooooooooooooooooooooO.....O.XXOO...Ooooooooooooooooooooo",
"oooooooooooooooooooooooOOOOOOOOOXXXX..Oooooooooooooooooooooo",
"oooooooooooooooooooooooOO.XXXXXOOOOOOOoooooooooooooooooooooo",
"oooooooooooooooooooooooOO.XXXXXXO..OOooooooooooooooooooooooo",
"oooooooooooooooooooooooOOOOOOOOOOOOooOoooooooooooooooooooooo",
"oooooooooooooooooooooooO..XX..XOOOOOoOOooooooooooooooooooooo",
"oooooooooooooooooooooooO.XX....X..OoOooooooooooooooooooooooo",
"ooooooooooooooooooooooOXX.........Oooooooooooooooooooooooooo",
"ooooooooooooooooooooOOOXX...OO.XX..Ooooooooooooooooooooooooo",
"oooooooooooooooooooOXXX......OOXXX.OOOoooooooooooooooooooooo",
"oooooooooooooooooooOXXXXX...OOO...XXXOoooooooooooooooooooooo"
};
