/* XPM */
static char *result[] = {
/* columns rows colors chars-per-pixel */
"60 30 5 1 ",
"  c #193D3F",
". c #23F023",
"X c #63C64D",
"o c None",
"O c #80FF80",
/* pixels */
"oooooooooooooooooooooOOOOOOooooooooooooooooooooooooooooooooo",
"oooooooooooooooooooOOOXXX.OOOooooooooooooooooooooooooooooooo",
"ooooooooooooooooooOOXXXXXX..OOoooooooooooooooooooooooooooooo",
"ooooooooooooooooooOXXXXXXXOO.OOooooooooooooooooooooooooooooo",
"ooooooooooooooooooO XX XXXOO..Oooooooooooooooooooooooooooooo",
"ooooooooooooooooooO XX XXXX....ooooooooooooooooooooooooooooo",
"ooooooooooooooooooOXXXXXXX..O..Ooooooooooooooooooooooooooooo",
"ooooooooooooooooooOXXXXXX.....OOOooooooooooooooooooooooooooo",
"oooooooooooooooooOO..........OO..Ooooooooooooooooooooooooooo",
"ooooooooooooooooOOOOX.X.X...OOX.O.Oooooooooooooooooooooooooo",
"ooooooooooooooooO..OO......O.OXX..Oooooooooooooooooooooooooo",
"ooooooooooooooooO...OOX..OOO.O..X..Ooooooooooooooooooooooooo",
"ooooooooooooooooO.....X....XOOO..X.OOooooooooooooooooooooooo",
"ooooooooooooooooO.XXX.X.XXX.OOOO..O.Oooooooooooooooooooooooo",
"ooooooooooooooooO.....X....X...OO.X.Oooooooooooooooooooooooo",
"oooooooooooooooooO.XX.XOOXXOOO.OO.X.Oooooooooooooooooooooooo",
"oooooooooooooooooO....XOO.OOXXXO.X.OOooooooooooooooooooooooo",
"ooooooooooooooooooOXX.X..OOX.XXX..OOOooooooooooooooooooooooo",
"ooooooooooooooooooOO..X..O.XXXOO..OOOooooooooooooooooooooooo",
"oooooooooooooooooooO.....O.XXXOO..OoOooooooooooooooooooooooo",
"ooooooooooooooooooOOOOOOOOOXXXX.XOOoOOoooooooooooooooooooooo",
"ooooooooooooooooooOO.XXXXXOOOOOOOoOoooOooooooooooooooooooooo",
"ooooooooooooooooooOO.XXXXXOX..O.oooOoooooooooooooooooooooooo",
"ooooooooooooooooooOOOOOOOOOOO.Oooooooooooooooooooooooooooooo",
"ooooooooooooooooooOO..X...O..OOooooooooooooooooooooooooooooo",
"ooooooooooooooooooO..XX.OXO...Oooooooooooooooooooooooooooooo",
"ooooooooooooooooooOO.X..OXO......Ooooooooooooooooooooooooooo",
"oooooooooooooooooooO.....XXX....OOoooooooooooooooooooooooooo",
"oooooooooooooooooooOXX...O..XX..OoOooooooooooooooooooooooooo",
"oooooooooooooooooooOXX.OO.XXX...OoOooooooooooooooooooooooooo"
};
