/* XPM */
static char *result[] = {
/* columns rows colors chars-per-pixel */
"60 30 5 1 ",
"  c #193D3F",
". c #23F023",
"X c #63C64D",
"o c None",
"O c #80FF80",
/* pixels */
"ooooooooooooooooooOOOOOOoooooooooooooooooooooooooooooooooooo",
"ooooooooooooooooOOOXXX.OOOoooooooooooooooooooooooooooooooooo",
"oooooooooooooooOOXXXXXOO.OOooooooooooooooooooooooooooooooooo",
"oooooooooooooooOXXXXXXOO..OOoooooooooooooooooooooooooooooooo",
"oooooooooooooooOX XX XXX...Ooooooooooooooooooooooooooooooooo",
"oooooooooooooooOX XX XXX....OOOooooooooooooooooooooooooooooo",
"oooooooooooooooOXXXXXXXO..O....Ooooooooooooooooooooooooooooo",
"ooooooooooooooOO.XXXXX....O.XX..Oooooooooooooooooooooooooooo",
"oooooooooooooOOO..........O.XX...Ooooooooooooooooooooooooooo",
"oooooooooooooOO.O.X.X.X..O..OXO..OOooooooooooooooooooooooooo",
"oooooooooooooOO.OO......O...O..X..Oooooooooooooooooooooooooo",
"ooooooooooooOOO..OO.X.OOO....O..X.OOoooooooooooooooooooooooo",
"ooooooooooooO.OX....X....OO..OO....Ooooooooooooooooooooooooo",
"ooooooooooooO.O.XXX.X.XXXOO...OO.X.Ooooooooooooooooooooooooo",
"ooooooooooooO.OX....OO...X....OO.X.Ooooooooooooooooooooooooo",
"ooooooooooooO.OOOXX.OOXXX....OOO.XOOoooooooooooooooooooooooo",
"oooooooooooOO..OO...X....X...OoO.X.Ooooooooooooooooooooooooo",
"ooooooooooO.XX.OOXX.X.OXX...OOoO....Oooooooooooooooooooooooo",
"oooooooooOXXXXX.O...X.......OoOO....Oooooooooooooooooooooooo",
"ooooooooOX.XXXX.O..........OooO.XOO.Oooooooooooooooooooooooo",
"ooooooooO.X.XXOOOOOOOOOOOOOOoOOXXOOXOooooooooooooooooooooooo",
"ooooooooOX.X.XOOO.XXXXXXX..OOOX.XXXXOooooooooooooooooooooooo",
"oooooooooOOOOOoOO.XXXXXXX..OOX..XXX.Oooooooooooooooooooooooo",
"oooooooooOoOoooOOOOOOOOOOOOOOO.XX.XOOooooooooooooooooooooooo",
"oooooooooOoOoooO.......XX...OOOX.XOoOooooooooooooooooooooooo",
"oooooooooOoOoooOO..X.XXX....OOOOOOOoOooooooooooooooooooooooo",
"oooooooooOooooooOO.XOXXX....OooooOOoOooooooooooooooooooooooo",
"oooooooooOooooooOXXO...X...OOoooooOooooooooooooooooooooooooo",
"ooooooooooooooooOXXXXXX...OoOoooooOooooooooooooooooooooooooo",
"oooooooooooooooooOOXXXX..OooOoooooOooooooooooooooooooooooooo"
};
