/* XPM */
static char *result[] = {
/* columns rows colors chars-per-pixel */
"60 30 5 1 ",
"  c #193D3F",
". c #23F023",
"X c #63C64D",
"o c None",
"O c #80FF80",
/* pixels */
"oooooooooooooOOOOOOooooooooooooooooooooooooooooooooooooooooo",
"oooooooooooOOOXXX.OOOooooooooooooooooooooooooooooooooooooooo",
"ooooooooooOOXXXXOO..OOoooooooooooooooooooooooooooooooooooooo",
"ooooooooooOXXXXXOOX..OOooooooooooooooooooooooooooooooooooooo",
"ooooooooooOX XX XXX...Oooooooooooooooooooooooooooooooooooooo",
"ooooooooooOX XX XXX....OOOoooooooooooooooooooooooooooooooooo",
"ooooooooooOXXXXXXO...O....Oooooooooooooooooooooooooooooooooo",
"oooooooooOO.XXXXX....O.XX..Ooooooooooooooooooooooooooooooooo",
"ooooooooOOO..........O.XXO..Oooooooooooooooooooooooooooooooo",
"ooooooooOO.O.X.X.X..O..OXX..OOoooooooooooooooooooooooooooooo",
"ooooooooOO.OO......O...O..X..Ooooooooooooooooooooooooooooooo",
"oooooooOOO..OO.X.OOO....O..X.OOooooooooooooooooooooooooooooo",
"oooooooO.OX....X....OO..OO....Oooooooooooooooooooooooooooooo",
"oooooooO.O.XXX.OOXXXOO...OO.X.Oooooooooooooooooooooooooooooo",
"oooooooO.OX....OO...X....OO.X.Oooooooooooooooooooooooooooooo",
"oooooooO.OOOXX.X.XXX....OOO.XOOooooooooooooooooooooooooooooo",
"ooooooOO..OO...X....X...OoO.X.Oooooooooooooooooooooooooooooo",
"oooooO.XX.OOXX.X.OXX...OOoO....Ooooooooooooooooooooooooooooo",
"ooooOXXXXX.O...X.......OoOO....Ooooooooooooooooooooooooooooo",
"oooOX.XXXX.O..........OooO.XOO.Ooooooooooooooooooooooooooooo",
"oooO.X.XXOOOOOOOOOOOOOOoOOXXOOXOoooooooooooooooooooooooooooo",
"oooOX.X.XOOO.XXXXXXX..OOOX.XXXXOoooooooooooooooooooooooooooo",
"ooooOOOOOOOO.XXXXXXX..OOX..XXX.Ooooooooooooooooooooooooooooo",
"ooooOoOoooOOOOOOOOOOOOOOO.XX.XOOoooooooooooooooooooooooooooo",
"ooooOoOoooO...XOX......OOOX.XOoOoooooooooooooooooooooooooooo",
"ooooOooOoooO..O..X...OOOOOOOOOoOoooooooooooooooooooooooooooo",
"oooooOoooooO..O.XXX.OOOOoooooOooOooooooooooooooooooooooooooo",
"ooooooooooooO.O.XXXOOO.OoooooOoooooooooooooooooooooooooooooo",
"ooooooooooooOOO....OO.OoooooooOooooooooooooooooooooooooooooo",
"oooooooooooOXX...X.O.OoooooooooOoooooooooooooooooooooooooooo"
};
