/* XPM */
static char *result[] = {
/* columns rows colors chars-per-pixel */
"30 30 6 1 ",
". c #F70707",
"m c #F70707",
"X c #FCFEFE",
"o c None",
"O c None",
"+ c None",
/* pixels */
"++++++++++++++++++++++++++++++",
"++++++++++++++++++++++++++++++",
"++++++++++mm+++++XX+++++++++++",
"+++++++++mmom+++XXXX++++++++++",
"++++++++mmooom+XXXXX++++++++++",
"++++++++mmoooomXXXXXX+++++++++",
"+++++++++mmoommXXXXXX+++++++++",
"+++++++++mmoooooXXXXXX++++++++",
"++++++++mmoooooooXXXXX++++++++",
"++++++++mmooooOOOOOOXXX+++++++",
"+++++++mmooooOOOOOOOOXX+++++++",
"+++++++mmoooOOXXXOOO...X++++++",
"+++++++mmoooOXXOOX...O.X++++++",
"+++++++mmoooOXXOOX...O.X++++++",
"+++++++mmoooOXXXXX.....X++++++",
"+++++++mmooooOXXXOO...XX++++++",
"++++++++mmoooOOOOOOOOOX+++++++",
"++++++++mmoooo.OOOOOOXX+++++++",
"+++++++++mmoooo......X++++++++",
"+++++++++mmooooo...XX+++++++++",
"++++++++mmooomoOOOOXXX++++++++",
"++++++++mmooomoOOOOOXX++++++++",
"+++++++mmooommOOOOOOXXX+++++++",
"+++++++mmooommOOOOOOXXX+++++++",
"+++++++mmoommoOOOOOOXXX+++++++",
"++++++++mmmmmooOOOOXXX++++++++",
"+++++++++mmmooommmXXX+++++++++",
"+++++++++mmooommXXXXX+++++++++",
"+++++++++mmooommXXXX++++++++++",
"+++++++++mmmmm+mXXXX++++++++++"
};
