/* XPM */
static char *result[] = {
/* columns rows colors chars-per-pixel */
"30 30 6 1 ",
"  c #F70707",
". c #780BF7",
"X c #D840FB",
"o c #F70707",
"O c #FCFEFE",
"+ c None",
/* pixels */
"++++++++++++++++++++++++++++++",
"++++++++++++++++++++++++++++++",
"++++++++++++++++++++++++++++++",
"++++++++++++++++++++++++++++++",
"+++++++++   ++++   +++++++++++",
"++++++++ ooo ++ ... ++++++++++",
"++++++++ ooo ++ ... ++++++++++",
"++++++++ oooo   ... ++++++++++",
"++++++++ oooXXXX.... +++++++++",
"++++++++ XoooooXXX.. +++++++++",
"+++++++ XoooooooXXX. +++++++++",
"+++++++ oooooOOOOOO.. ++++++++",
"++++++ XooooOOOOOOOO. ++++++++",
"++++++ ooooOO   OOO  . +++++++",
"++++++ ooooO  OO O  O  +++++++",
"++++++ ooooO     O     +++++++",
"++++++ ooooO     O     +++++++",
"++++++ XooooO   OOO  . +++++++",
"+++++++ ooooOOOOOOOOO ++++++++",
"+++++++ XooooXOOOOOO. ++++++++",
"++++++++ oooooXXX... +++++++++",
"++++++++ oooooOOOO.. +++++++++",
"+++++++ oooo.oOOOOO. +++++++++",
"+++++++ oooo.OOOOOO. +++++++++",
"+++++++ oooo.OOOOOO. +++++++++",
"+++++++ oooo.OOOOOO ++++++++++",
"+++++++ ooo.XoOOOO. ++++++++++",
"++++++++ ..XooXXX.. ++++++++++",
"++++++++ oooo  .... ++++++++++",
"++++++++ ooo ++ ... ++++++++++"
};
