/* XPM */
static char *result[] = {
/* columns rows colors chars-per-pixel */
"30 30 6 1 ",
"  c #04193F",
". c #FCFEFE",
"X c #D840FB",
"o c #F70707",
"O c #None",
"+ c None",
/* pixels */
"++++++++++++++++++++++++++++++",
"++++++++++++++++++++++++++++++",
"+++++++++oooo+++   +++++++++++",
"++++++++oooooo+ ... ++++++++++",
"++++++++ooooooo..... +++++++++",
"++++++++oooooXXXX... +++++++++",
"+++++++++XooooooXXX.. ++++++++",
"++++++++XooooooooXXX. ++++++++",
"++++++++ooooooOOOOOO.. +++++++",
"+++++++XoooooOOOOOOOO. +++++++",
"+++++++oooooOO   OOO  . ++++++",
"+++++++oooooO  OO O  O  ++++++",
"+++++++oooooO  OO O  O  ++++++",
"+++++++oooooO  OO O  O  ++++++",
"+++++++XoooooO   OOO  . ++++++",
"++++++++oooooOOOOOOOOO +++++++",
"++++++++XoooooXOOOOOO. +++++++",
"+++++++++ooooooXXX... ++++++++",
"+++++++++oooooooOOO.. ++++++++",
"++++++++ooooo oOOOO... +++++++",
"++++++++ooooo oOOOOO... ++++++",
"+++++++ooooo XOOOOOO.... +++++",
"+++++++ooooo XOOOOOO..... ++++",
"+++++++ooooo XOOOOOO .... ++++",
"+++++++oooo XoOOOOOO  ... ++++",
"++++++++oo XXooOOOO..+...+++++",
"+++++++++ XXoooXXX...+++++++++",
"+++++++++oooooo .....+++++++++",
"+++++++++oooooo ....++++++++++",
"+++++++++ooooo+ ....++++++++++"
};
