/* XPM */
static char *result[] = {
/* columns rows colors chars-per-pixel */
"60 30 5 1 ",
"  c #193D3F",
". c #23F023",
"X c #63C64D",
"o c None",
"O c #80FF80",
/* pixels */
"oooooooooooooooooOOOOOOooooooooooooooooooooooooooooooooooooo",
"oooooooooooooooOOOXXXXOOOooooooooooooooooooooooooooooooooooo",
"ooooooooooooooOO.XXXXXXXOOoooooooooooooooooooooooooooooooooo",
"oooooooooooooOO..OOXXXXXXOoooooooooooooooooooooooooooooooooo",
"oooooooooooooO...OOX XX XOoooooooooooooooooooooooooooooooooo",
"ooooooooooOOO....XXX XX XOoooooooooooooooooooooooooooooooooo",
"oooooooooO....O.O.XXXXXXXOoooooooooooooooooooooooooooooooooo",
"ooooooooO..XX.O....XXXXX.OOooooooooooooooooooooooooooooooooo",
"oooooooO..OXX.O..........OOOoooooooooooooooooooooooooooooooo",
"ooooooOO..XXO..O..X.X.X.O.OOoooooooooooooooooooooooooooooooo",
"ooooooO..X..O...O......OO.OOoooooooooooooooooooooooooooooooo",
"oooooOO.X..O....OOO.X.OO..OOOooooooooooooooooooooooooooooooo",
"oooooO....OO...X....X....XO.Oooooooooooooooooooooooooooooooo",
"oooooO.X.OO...OOXXX.X.XXX.O.Oooooooooooooooooooooooooooooooo",
"oooooO.X.OO...OO....X....XO.Oooooooooooooooooooooooooooooooo",
"oooooOOX.OOO....XXXOO.XXOOO.Oooooooooooooooooooooooooooooooo",
"oooooO.X.OoO....O..OO...OO..OOoooooooooooooooooooooooooooooo",
"ooooO....OoOO...XXX.X.XXOO.XX.Oooooooooooooooooooooooooooooo",
"ooooO....OOoO.....O.X...O.XXXXXOoooooooooooooooooooooooooooo",
"ooooO.XXX.OooO..........O.XXXO.XOooooooooooooooooooooooooooo",
"ooooOXXXXXOOoOOOOOOOOOOOOOOXX.X.Oooooooooooooooooooooooooooo",
"ooooOXOOX.XOOO..XXXXXXX.OOOX.X.XOooooooooooooooooooooooooooo",
"ooooO.OOX..XOO..XXXXXXX.OOoOOOOOoooooooooooooooooooooooooooo",
"ooooOOX.XX.OOOOOOOOOOOOOOOoooOoOoooooooooooooooooooooooooooo",
"oooOooOX.XOOO....XX.O....OooOoOooooooooooooooooooooooooooooo",
"ooooooOOOOOOOOO...X..O..OOoooOoooooooooooooooooooooooooooooo",
"ooooooOOooOoOOOO.OXXXO.OOoooOooooooooooooooooooooooooooooooo",
"oooooOOooOooOoOOO.XXXO.Ooooooooooooooooooooooooooooooooooooo",
"ooooOooooooOoooOOOOOOOOooooooooooooooooooooooooooooooooooooo",
"ooooooooooOooooOO...XOOooooooooooooooooooooooooooooooooooooo"
};
