/* XPM */
static char *result[] = {
/* columns rows colors chars-per-pixel */
"60 30 5 1 ",
"  c #193D3F",
". c #23F023",
"X c #63C64D",
"o c None",
"O c #80FF80",
/* pixels */
"oooooooooooooooooooooooooooOOOOOOooooooooooooooooooooooooooo",
"oooooooooooooooooooooooooOOO.XXXOOOooooooooooooooooooooooooo",
"ooooooooooooooooooooooooOO.OOXXXXXOOoooooooooooooooooooooooo",
"oooooooooooooooooooooooOO..OOXXXXXXOoooooooooooooooooooooooo",
"oooooooooooooooooooooooO...XXXX XX Ooooooooooooooooooooooooo",
"ooooooooooooooooooooooo...OXXXX XX Ooooooooooooooooooooooooo",
"ooooooooooooooooooooooO.....XXXXXXXOoooooooooooooooooooooooo",
"oooooooooooooooooooooOOO.....XXXXXXOoooooooooooooooooooooooo",
"ooooooooooooooooooooO..OO..........OOooooooooooooooooooooooo",
"oooooooooooooooooooO.O.XOO...X.X.XOOOOoooooooooooooooooooooo",
"oooooooooooooooooooO..XXO.O......OO.OOoooooooooooooooooooooo",
"ooooooooooooooooooO..X..O.OOO..XOO..Oooooooooooooooooooooooo",
"oooooooooooooooooOO.X..OOOX....X....Oooooooooooooooooooooooo",
"oooooooooooooooooO....OOOO.XXX.X.XXXOooooooooooooooooooooooo",
"oooooooooooooooooO.O.OO...X..OOX..OOOooooooooooooooooooooooo",
"oooooooooooooooooO.X.OO.OOOXXOOX.XXOOooooooooooooooooooooooo",
"oooooooooooooooooOO.X.OXXXOO...X..OOoooooooooooooooooooooooo",
"oooooooooooooooooOOO.XXXX.XOO..X.XOOoooooooooooooooooooooooo",
"ooooooooooooooooooOO.XXOOXX.O..X..Oooooooooooooooooooooooooo",
"oooooooooooooooooooO...OOXX.O.....Oooooooooooooooooooooooooo",
"ooooooooooooooooooooO..XXXXOOOOOOOOOoooooooooooooooooooooooo",
"oooooooooooooooooooooOOOOOOOXXXXX.OOoooooooooooooooooooooooo",
"ooooooooooooooooooooooOO..OXXXXXX.OOoooooooooooooooooooooooo",
"oooooooooooooooooooooOooOOOOOOOOOOOOoooooooooooooooooooooooo",
"ooooooooooooooooooooOOoOOOOOX..XX..Ooooooooooooooooooooooooo",
"ooooooooooooooooooooooOoO..X....XX.Ooooooooooooooooooooooooo",
"ooooooooooooooooooooooooO.........XXOooooooooooooooooooooooo",
"oooooooooooooooooooooooO..XX.OO...XXOOOooooooooooooooooooooo",
"oooooooooooooooooooooOOO.XXXOO......XXXOoooooooooooooooooooo",
"oooooooooooooooooooooOXXX...OOO...XXXXXOoooooooooooooooooooo"
};
