/* XPM */
static char *result[] = {
/* columns rows colors chars-per-pixel */
"60 30 5 1 ",
"  c #193D3F",
". c #23F023",
"X c #63C64D",
"o c None",
"O c #80FF80",
/* pixels */
"oooooooooooooooooooooooooooooooooooooooooOOOOOOooooooooooooo",
"oooooooooooooooooooooooooooooooooooooooOOO.XXXOOOooooooooooo",
"ooooooooooooooooooooooooooooooooooooooOO..OOXXXXOOoooooooooo",
"oooooooooooooooooooooooooooooooooooooOO..XOOXXXXXOoooooooooo",
"oooooooooooooooooooooooooooooooooooooO...XXX XX XOoooooooooo",
"ooooooooooooooooooooooooooooooooooOOO....XXX XX XOoooooooooo",
"oooooooooooooooooooooooooooooooooO....O...OXXXXXXOoooooooooo",
"ooooooooooooooooooooooooooooooooO..XX.O....XXXXX.OOooooooooo",
"oooooooooooooooooooooooooooooooO..OXX.O..........OOOoooooooo",
"ooooooooooooooooooooooooooooooOO..XXO..O..X.X.X.O.OOoooooooo",
"ooooooooooooooooooooooooooooooO..X..O...O......OO.OOoooooooo",
"oooooooooooooooooooooooooooooOO.X..O....OOO.X.OO..OOOooooooo",
"oooooooooooooooooooooooooooooO....OO..OO....X....XO.Oooooooo",
"oooooooooooooooooooooooooooooO.X.OO...OOXXXOO.XXX.O.Oooooooo",
"oooooooooooooooooooooooooooooO.X.OO....X...OO....XO.Oooooooo",
"oooooooooooooooooooooooooooooOOX.OOO....XXX.X.XXOOO.Oooooooo",
"oooooooooooooooooooooooooooooO.X.OoO...X....X...OO..OOoooooo",
"ooooooooooooooooooooooooooooO....OoOO...XXO.X.XXOO.XX.Oooooo",
"ooooooooooooooooooooooooooooO....OOoO.......X...O.XXXXXOoooo",
"ooooooooooooooooooooooooooooO.OOX.OooO..........O.XXXX.XOooo",
"ooooooooooooooooooooooooooooOXOOXXOOoOOOOOOOOOOOOOOXX.X.Oooo",
"ooooooooooooooooooooooooooooOXXXX.XOOO..XXXXXXX.OOOX.X.XOooo",
"ooooooooooooooooooooooooooooO.XXX..XOO..XXXXXXX.OOOOOOOOoooo",
"ooooooooooooooooooooooooooooOOX.XX.OOOOOOOOOOOOOOOoooOoOoooo",
"ooooooooooooooooooooooooooooOoOX.XOOO......XOX...OoooOoOoooo",
"ooooooooooooooooooooooooooooOoOOOOOOOOO...X..O..OoooOooOoooo",
"oooooooooooooooooooooooooooOooOoooooOOOO.XXX.O..OoooooOooooo",
"ooooooooooooooooooooooooooooooOoooooO.OOOXXX.O.Ooooooooooooo",
"oooooooooooooooooooooooooooooOoooooooO.OO....OOOoooooooooooo",
"ooooooooooooooooooooooooooooOoooooooooO.O.X...XXOooooooooooo"
};
