/* XPM */
static char *result[] = {
/* columns rows colors chars-per-pixel */
"30 60 5 1 ",
"  c #193D3F",
". c #23F023",
"X c #63C64D",
"o c None",
"O c #80FF80",
/* pixels */
"oooooooooooooooooooooooooooooo",
"oooooooooooooooooooooooooooooo",
"oooooooooooooooooooooooooooooo",
"oooooooooooooooooooooooooooooo",
"oooooooooooooooooooooooooooooo",
"ooooooooooOOOOOOOOOooooooooooo",
"ooooooooOO.........OOooooooooo",
"oooooooOO........O..OOOooooooo",
"ooooooOO..OOOXXX......OOoooooo",
"oooooO...OOXXXXXOO......Oooooo",
"ooooOO...OXXXXXXOO.......Ooooo",
"ooooOXX...X XX XXX...XXX..Oooo",
"oooO.XX...X XX OXX..OXXXX..Ooo",
"ooOO.XXOO.XXXXXXX...OXXOXX.Ooo",
"ooO.O.XXOO..XXXX...OOXOOX.X.Oo",
"oO..OOX..OO.......OO...O...XOO",
"O..XXOO....OX.X.OOO....OOO..XO",
"O.X.OOOO....XX.X.XXOOO..OO..XO",
".X..OoOOO......X........OOO...",
"....OooOOOOOXX.X.XXOOOOOOoO..X",
".X..OoooOO.....X......OOooO..X",
".X..OooooOOXXX.X.XXXXOoooO...X",
"..XX.OooooO....O....OoooO.....",
".XXXXXOoooOOXX.X.XXOOoooO..XXX",
".XXXOOXOooOOOOOOOOOOOooOOXXXXX",
"O.XXOO.OoOO.XXXXXXX.OoOOX.XXXX",
"OO.X..XOOO..XXXXXXX.OoO.OOXOXX",
"oO.O..OoOOOOOOOOOOOOOOOOOO..X.",
"oo.o..oO...X......X...OOOX.X.O",
"oo.o..O...X..OOO...OO.OOOO.O.O",
"oo.o..O..OXXOOoOO.XOO.OoOo.o.O",
"oo.o..OO.XXOOOooOOXXX.OoOo.o.O",
"oo.ooooOOOOOoOoooOOOOOOoOo.o.O",
"oo.ooooO.XXOooooooOXXOoooo.ooO",
"oo.oo.oO....OoooooO..O.ooo.ooo",
"ooooo.ooo..oooooooo....ooooooo",
"oo.oo.ooo..oooooooo...oooooo.o",
"oo.oooooo..oooooooo...oooo.o.o",
"oo.oooooo..oooooooo...oooo.ooo",
"ooooooooo.oooooooooo..oooo.ooo",
"ooooooooo.oooooooooo.ooooo.ooo",
"ooooooooo.oooooooooo.ooooooooo",
"ooooooooo.o.ooooooooo.oooooooo",
"ooooooooooo.ooooooooo.oooooooo",
"oooooooooooooooooooooooooooooo",
"oooooooo.ooo.oooooooo.oooooooo",
"oooooooo.ooo.oooooooo.oooooooo",
"oooooooo.ooo.oooooooo.oooooooo",
"oooooooo.ooo.oooooooo.oooooooo",
"oooooooo.ooo.oooooooo.o.oooooo",
"oooooooo.o.o.oooooooo.o.oooooo",
"oooooooo.o.o.oooooooo.oooooooo",
"oooooooo.ooo.oooooooo.o.oooooo",
"oooooo.o.ooo.oooooooo.o.oooooo",
"oooooo.o.ooo.oooooooo.o.oooooo",
"ooooooooo...ooo.oo.o.o..oooooo",
"oooooo.oo...oo.ooooo.o..o.oooo",
"oooooo.o.....o.oo.oo....o.oooo",
"oooooo.........ooooo....o.oooo",
"oooooo..........ooo.......oooo"
};
