/* XPM */
static char *result[] = {
/* columns rows colors chars-per-pixel */
"30 60 6 1 ",
"  c #193D3F",
". c #23F023",
"X c #40D440",
"o c #63C64D",
"O c None",
"+ c #80FF80",
/* pixels */
"OOOOOOOOOOOOOOOOOOOOOOOOOOOOOO",
"OOOOOOOOOOOOOOOOOOOOOOOOOOOOOO",
"OOOOOOOOOOOOOOOOOOOOOOOOOOOOOO",
"OOOOOOOOOOOOOOOOOOOOOOOOOOOOOO",
"OOOOOOOOOOOOOOOOOOOOOOOOOOOOOO",
"OOOOOOOOOOOOOOOOOOOOOOOOOOOOOO",
"OOOOOOOOOOOOOOOOOOOOOOOOOOOOOO",
"OOOOOOOOOOOOOOOOOOOOOOOOOOOOOO",
"OOOOOOOOOOOOOOOOOOOOOOOOOOOOOO",
"OOOOOOOOOOOOOOOOOOOOOOOOOOOOOO",
"OOOOOOOOOOOOOOOOOOOOOOOOOOOOOO",
"OOOOOOOOOOOOOOOOOOOOOOOOOOOOOO",
"OOOOOOOOOOOOOOOOOOOOOOOOOOOOOO",
"OOOOOOOOOOOOOOOOOOOOOOOOOOOOOO",
"OOOOOOOOOOOOOOOOOOOOOOOOOOOOOO",
"OOOOOOOOOOOOOOOOOOOOOOOOOOOOOO",
"OOOOOOOOOOOOOOOOOOOOOOOOOOOOOO",
"OOOOOOOOOOOOOOOOOOOOOOOOOOOOOO",
"OOOOOOOOOOOOOOOOOOOOOOOOOOOOOO",
"OOOOOOOOOOOOOOOOOOOOOOOOOOOOOO",
"OOOOOOOOOOOOOOOOOOOOOOOOOOOOOO",
"OOOOOOOOOOOOOOOOOOOOOOOOOOOOOO",
"OOOOOOOOOOOOOOOOOOOOOOOOOOOOOO",
"OOOOOOOOOOOOOOOOOOOOOOOOOOOOOO",
"OOOOOOOOOOOOOOOOOOOOOOOOOOOOOO",
"OOOOOOOOOOOOOOOOOOOOOOOOOOOOOO",
"OOOOOOOOOOOOOOOOOOOOOOOOOOOOOO",
"OOOOOOOOOOOOOOOOOOOOOOOOOOOOOO",
"OOOOOOOOOOOOOOOOOOOOOOOOOOOOOO",
"OOOOOOOOOOOOOOOOOOOOOOOOOOOOOO",
"OOOOOOOOOO++++++++OOOOOOOOOOOO",
"OOOOOOOOO++......+++OOOOOOOOOO",
"OOOOOOOO+...+++....+++OOOOOOOO",
"OOOOOOO...+++ooo.+...+++OOOOOO",
"OOOOOO+..++oooooo......++OOOOO",
"OOOOO+...+oooooo++..+....+OOOO",
"OOOO++....o oo o++..+.o...+OOO",
"OOO++oo+..o oo ooo..+ooo...+OO",
"OO++.oo++.ooooo+o..++oooo...+O",
"OO+..ooo++.oooooo.++ooo+o...++",
"O+..+.ooo+++....+++.oo.+++o..+",
"O+.o++.+....o.o.o.......+++o.+",
"++o+++..+...............+O++o.",
"+o.++++..++ooo.o.oooo+++++++.o",
"+..+OO+++......o.......++OO+..",
"o..+OOO++++ooo.o.ooo++++OOO+..",
"o..+OOOO++.....o......+OOOO+..",
"...+OOOO++oooo.o.oooo++OOO++..",
".oo.+OOOO+.....+.....+OOO++...",
"oo++o+OOO+oooo.X.ooo++OOO+..oo",
"oo++.o+OO++++++++++++OOO++oooo",
".oooo.+OO++.ooooooo.+OO++o.oo+",
"+.o..o+O++..ooooooo.+OO+..++oo",
"++++++OO++++++++++++++O++.++.o",
"O+OOOOO+...o......o++.+O++o.o.",
"O+OOOO+..+o..+++...++.+O++++++",
"O+OOOO+..ooo++O++.ooo.+OO+OOOO",
"OOOOOO++.oo+++OO++ooo.+OO+OOOO",
"OOOOOOO+++++O+OOO+++++OOOOOOOO",
"OOOOOOO+....+OOOOO+..+OOOOOOOO"
};
