/* XPM */
static char *result[] = {
/* columns rows colors chars-per-pixel */
"30 60 5 1 ",
"  c #193D3F",
". c #23F023",
"X c #63C64D",
"o c None",
"O c #80FF80",
/* pixels */
"oooooooooooooooooooooooooooooo",
"oooooooooooooooooooooooooooooo",
"oooooooooooooooooooooooooooooo",
"oooooooooooooooooooooooooooooo",
"oooooooooooooooooooooooooooooo",
"oooooooooooooooooooooooooooooo",
"oooooooooooooooooooooooooooooo",
"oooooooooooooooooooooooooooooo",
"oooooooooooooooooooooooooooooo",
"oooooooooooooooooooooooooooooo",
"oooooooooooooooooooooooooooooo",
"oooooooooooooooooooooooooooooo",
"oooooooooooooooooooooooooooooo",
"oooooooooooooooooooooooooooooo",
"oooooooooooooooooooooooooooooo",
"ooooooooooOOOOOOOOoooooooooooo",
"oooooooooOO......OOooooooooooo",
"ooooooooO...OOO....OOooooooooo",
"oooooooO..OOOXXX.O...OOooooooo",
"ooooooO..OOXXXXXX......Ooooooo",
"oooooO...OXXXXXXOO..O...Oooooo",
"ooooOO....X XX XOO..O.XX.Ooooo",
"ooooOXXO..X XX XXX..OXXXX.Oooo",
"oooO.XXOO.XXXXXOX..OOXXXXX.Ooo",
"ooOO.XXXOO.XXXXXX.OOXXXOXX.Ooo",
"ooO.O.XXXOOO....OOO.XXOOX.X.Oo",
"oO..OOX.....X.X.X.....OO...XOO",
"O..XXOO.O.............OOOO..XO",
"O.X.OOOO.OOXXX.X.XXXXO.OoO..XO",
".X..OOooO......X.......OOOO...",
"....OooooOOOXX.X.XXXOOOoooO..X",
".X..OooooO.....X......OooooO.X",
".X..OooooOXXXX.X.XXXXOoooooO.X",
".X..OoooooO....O.....OoooooO..",
"..XX.OooooOXXX.X.XXXOooooOO...",
".XXXXXOoooO....X....OoooOO.XXX",
".XXOO.XOooOOOOOOOOOOOooOOXXXXX",
"O.XOOX.OoOO.XXXXXXX.OoOOX.XXOX",
"OO.X..XOOO..XXXXXXX.OoO..OOXXX",
"oOOO..OoOOOOOOOOOOOOOOOO.OO.X.",
"oOoo..oO...X......X...OOOX.X.O",
"Oooo..O...X..OOO...OO.OOOO.O.O",
"oooo..O..OXXOOoOO.XOO.OoOo...O",
"oooo..OO.XXOOOooOOXXX.OooO...O",
"oooo..oO.OOO.OoooOO.....oo.o.o",
"oooo..oo.....oooooo.....oo.o.o",
"oooo.ooo.....ooooooo...ooo.o.o",
"oooo.ooo..o..ooooooo...ooo.ooo",
"oooo.ooo..o..ooooooo..oooo.ooo",
"oooo.ooo.ooo.ooooooo..oooo.ooo",
"oooooooo.ooo.oooooooo.oooooooo",
"oooooooo.o.o.oooooooo.o.oooooo",
"oooooooo.o.o.oooooooo.oooooooo",
"oooooooo.ooo.oooooooo.o.oooooo",
"oooooo.o.ooo.oooooooo.o.oooooo",
"oooooo.o.ooo.oooooooo.o.oooooo",
"ooooooooo...ooo.oo.o.o..oooooo",
"oooooo.oo...oo.ooooo.o..o.oooo",
"oooooo.o.....o.oo.oo....o.oooo",
"oooooo.........ooooo....o.oooo"
};
