/* XPM */
static char *result[] = {
/* columns rows colors chars-per-pixel */
"30 60 5 1 ",
"  c #193D3F",
". c #23F023",
"X c #63C64D",
"o c None",
"O c #80FF80",
/* pixels */
"oooooooooooooooooooooooooooooo",
"oooooooooooooooooooooooooooooo",
"oooooooooooooooooooooooooooooo",
"oooooooooooooooooooooooooooooo",
"oooooooooooooooooooooooooooooo",
"oooooooooooooooooooooooooooooo",
"oooooooooooooooooooooooooooooo",
"oooooooooooooooooooooooooooooo",
"oooooooooooooooooooooooooooooo",
"oooooooooooooooooooooooooooooo",
"oooooooooooooooooooooooooooooo",
"oooooooooooooooooooooooooooooo",
"oooooooooooooooooooooooooooooo",
"oooooooooooooooooooooooooooooo",
"oooooooooooooooooooooooooooooo",
"oooooooooooooooooooooooooooooo",
"oooooooooooooooooooooooooooooo",
"oooooooooooooooooooooooooooooo",
"oooooooooooooooooooooooooooooo",
"oooooooooooooooooooooooooooooo",
"ooooooooooOOOOOOOOoooooooooooo",
"oooooooooOO......OOooooooooooo",
"ooooooooO...OOO....OOooooooooo",
"oooooooO..OOOXXX.O...OOooooooo",
"ooooooO..OOXXXXXX......Ooooooo",
"oooooO...OXXXXXXOO..O...Oooooo",
"ooooOO....X XX XOO..O.XX.Ooooo",
"ooooOXXO..X XX XXX..OXXXX.Oooo",
"oooO.XXOO.XXXXXOX..OOXXXXX.Ooo",
"ooOO.XXXOO.XXXXXX.OOXXXOXX.Ooo",
"ooO.O.XXXOOO....OOO.XXOOX.X.Oo",
"oO..OOX.....X.X.X.....OO...XO.",
"O..XXOO.O.............OOOO..X.",
"O.X.OOOO.OOXXX.X.XXXXO.OoO..X.",
".X..OOooO......X.......OOOO...",
"....OooooOOOXX.X.XXXOOOoooO...",
".X..OooooO.....X......OooooO..",
".X..OooooOXXXX.X.XXXXOoooooO..",
".X..OoooooO....O.....OoooooO..",
"..XX.OooooOXXX.X.XXXOooooOO...",
".XXXXXOoooO....X....OoooOO.XX.",
".XXOO.XOooOOOOOOOOOOOooOOXXXX.",
"O.XOOX.OoOO.XXXXXXX.OoOOX.XXO.",
"OO.X..XOOO..XXXXXXX.OoO..OOXX.",
"oO.O..OoOOOOOOOOOOOOOOOO.OO.X.",
"oOoo..oO...X......X...OOOX.X.O",
"Oooo..O...X..OOO...OO.OOOO.O.O",
"oooo.oO..OXX.OoOO.XOO.OoOo.o.O",
"oooo.oO..XXO.OooOOXXX.OooO.o.O",
"oooo.oo...O..OoooOOOO.Oooo.o.o",
"oooo.ooo.....oooooooo.oooo.o.o",
"oooooooo.....oooooooo.oooo.o.o",
"oooooooo..o..oooooooo.oooo.o.o",
"oooooooo..o..oooooooo.oooooooo",
"oooooooo.ooo.oooooooo.oooooooo",
"oooooo.o.ooo.oooooooo.o.oooooo",
"oooooo.o.ooo.oooooooo.o.oooooo",
"ooooooooo...ooo.oo.o.o..oooooo",
"oooooo.oo...oo.ooooo.o..o.oooo",
"oooooo.o.....o.oo.oo....o.oooo",
};
