/* XPM */
static char *result[] = {
/* columns rows colors chars-per-pixel */
"60 30 5 1 ",
"  c #193D3F",
". c #23F023",
"X c #63C64D",
"o c None",
"O c #80FF80",
/* pixels */
"oooooooooooooooooooooOOOOOOooooooooooooooooooooooooooooooooo",
"oooooooooooooooooooOOOXXX.OOOooooooooooooooooooooooooooooooo",
"ooooooooooooooooooOOXXXXXX..OOoooooooooooooooooooooooooooooo",
"ooooooooooooooooooOXXXXXXOO..OOooooooooooooooooooooooooooooo",
"ooooooooooooooooooOX XX XOO...Oooooooooooooooooooooooooooooo",
"ooooooooooooooooooOX XX XXX....ooooooooooooooooooooooooooooo",
"ooooooooooooooooooOXXXXXXXXO.OOOoooooooooooooooooooooooooooo",
"ooooooooooooooooooO.XXXXXX......Oooooooooooooooooooooooooooo",
"oooooooooooooooooOO..........XX..Ooooooooooooooooooooooooooo",
"ooooooooooooooooOO.O.X.X.X..OXX...Oooooooooooooooooooooooooo",
"ooooooooooooooooOO.OO......O.OXXO.OOoooooooooooooooooooooooo",
"ooooooooooooooooOO..OO.X.OOO.O..X..Ooooooooooooooooooooooooo",
"ooooooooooooooooOOX....X....X.O..X.OOooooooooooooooooooooooo",
"ooooooooooooooooOO.XXX.X.XXOO.OO....Oooooooooooooooooooooooo",
"oooooooooooooooooOX....OO..OO...O.X.OOoooooooooooooooooooooo",
"oooooooooooooooooOOOXX.OOXXX....O.XO.Ooooooooooooooooooooooo",
"oooooooooooooooooOOO...X....X...O.X..Ooooooooooooooooooooooo",
"ooooooooooooooooOOOOXX.X.XXX....O.X..Ooooooooooooooooooooooo",
"oooooooooooooooO.X.O...X.O...OOO.....Ooooooooooooooooooooooo",
"ooooooooooooooOXXX.O.........O.XOO..OOoooooooooooooooooooooo",
"oooooooooooooOX.XXOOOOOOOOOOOOXXOOXOOOoooooooooooooooooooooo",
"oooooooooooooO.X.XOO.XXXXXXOOX.XXXXOoOoooooooooooooooooooooo",
"oooooooooooooOX.X.OO.XXXXXXOX..XXX.OoOoooooooooooooooooooooo",
"oooooooooooooOOOOOOOOOOOOOOOO.XX.XOOoOoooooooooooooooooooooo",
"oooooooooooooOoOooO....X...OOOX.XOoOoooooooooooooooooooooooo",
"oooooooooooooOoOoooO...X..XOOOOOOOoooooooooooooooooooooooooo",
"oooooooooooooOoooooO..X..XXO.O.OOOoooooooooooooooooooooooooo",
"oooooooooooooOoooooO..X..XXO.O.OoOoooooooooooooooooooooooooo",
"oooooooooooooooooooO.XXXO....OOOOOoooooooooooooooooooooooooo",
"oooooooooooooooooooO.XXXOXX...OOoOoooooooooooooooooooooooooo"
};
