/* XPM */
static char *result[] = {
/* columns rows colors chars-per-pixel */
"30 30 6 1 ",
"  c #04193F",
". c #780BF7",
"X c #D840FB",
"o c #F489F6",
"O c #FCFEFE",
"+ c None",
/* pixels */
"++++++++++++++++++++++++++++++",
"++++++++++++++++++++++++++++++",
"++++++++++++++++++++++++++++++",
"++++++++      +   ++++++++++++",
"+++++++ oooooo ...  ++++++++++",
"+++++++ oooooXXXX... +++++++++",
"++++++++  XXooooXXX.. ++++++++",
"++++++++ XoooooooXXX. ++++++++",
"++++++++ oooooOOOOOO.. +++++++",
"+++++++ XooooOOOOOOOO. +++++++",
"+++++++ ooooOO   OOO  . ++++++",
"+++++++ ooooO  OO O  O  ++++++",
"+++++++ ooooO  OO O  O  ++++++",
"+++++++ ooooO  OO O  O  ++++++",
"+++++++ XooooO   OOO  . ++++++",
"++++++++ ooooOOOOOOOOO +++++++",
"++++++++ XooooXOOOOOO. +      ",
"++++++++ ooooooXXX...   ......",
"+++++++ ooooooooOOO...........",
"++++++ ooooo.ooOOOO...........",
"++++++ oooo.XooOOOOO......... ",
"+++++ oooo.XXoOOOOOO......... ",
"+++++ oooo.XooOOOOOO.    ... +",
"+++++ ooo.XXooOOOOOO ++++   ++",
"++++++   .XoooOOOOOO +++++++++",
"+++++++++ oooooOOOO. +++++++++",
"++++++++ ooooooXXX.. +++++++++",
"++++++++ oooo   ... ++++++++++",
"+++++++ oooo + .... ++++++++++",
"+++++++ ooo ++ ... +++++++++++"
};
