/* XPM */
static char *result[] = {
/* columns rows colors chars-per-pixel */
"60 30 5 1 ",
"  c #193D3F",
". c #23F023",
"X c #63C64D",
"o c None",
"O c #80FF80",
/* pixels */
"ooooooooooooooooooooOOOOOOoooooooooooooooooooooooooooooooooo",
"ooooooooooooooooooOOO....OOOoooooooooooooooooooooooooooooooo",
"oooooooooooooooooOO...XXXXXOOooooooooooooooooooooooooooooooo",
"ooooooooooooooooOO..OOXXXXXXOooooooooooooooooooooooooooooooo",
"ooooooooooooooooO...OOXXXXXXOooooooooooooooooooooooooooooooo",
"oooooooooooooooo....XXXX XX Oooooooooooooooooooooooooooooooo",
"oooooooooooooooOOO.OXXXX XX Oooooooooooooooooooooooooooooooo",
"ooooooooooooooO...O..XXXXXXXOooooooooooooooooooooooooooooooo",
"oooooooooooooO..XXX...XXXXXXOOoooooooooooooooooooooooooooooo",
"ooooooooooooO.O.XXXO........OOOooooooooooooooooooooooooooooo",
"oooooooooooOO..X.XOO.X.X.X.O.OOooooooooooooooooooooooooooooo",
"oooooooooooO..X..O.......OO..OOooooooooooooooooooooooooooooo",
"ooooooooooOO.X..O............OOooooooooooooooooooooooooooooo",
"ooooooooooO....OO..X....X....OOooooooooooooooooooooooooooooo",
"oooooooooOO.X.O.OO..XXX.X.XXXOoooooooooooooooooooooooooooooo",
"oooooooooO.OX.O.OO.X..OOX...OOoooooooooooooooooooooooooooooo",
"oooooooooO..X.O.....XXOOX.XXOOoooooooooooooooooooooooooooooo",
"oooooooooO..X.O...OX....X..OOOOooooooooooooooooooooooooooooo",
"oooooooooO.....OOO..XXO.X.XO.X.Ooooooooooooooooooooooooooooo",
"ooooooooooO..XXX.O......X..O.OXXOooooooooooooooooooooooooooo",
"ooooooooooOOOOXXXOOOOOOOOOOOOXX.XOoooooooooooooooooooooooooo",
"oooooooooooOOOXX.XOOXXXXXX.OOX.X.Ooooooooooooooooooooooooooo",
"oooooooooooO.XXX..XOXXXXXX.OO.X.XOoooooooooooooooooooooooooo",
"oooooooooooOOX.XX.OOOOOOOOOOOOOOOOoooooooooooooooooooooooooo",
"oooooooooooooOX.XOOO...X....OooOoOoooooooooooooooooooooooooo",
"oooooooooooooOOOOOOO...X...OoooOoOoooooooooooooooooooooooooo",
"oooooooooooooOOO.O.O.O..X..OoooooOoooooooooooooooooooooooooo",
"oooooooooooooooO.OXOXOO.X..OoooooOoooooooooooooooooooooooooo",
"ooooooooooooooOOOOXXXOOXXX.OoooooOoooooooooooooooooooooooooo",
"oooooooooooooOoOO....OOXXX.Ooooooooooooooooooooooooooooooooo"
};
