/* XPM */
static char *result[] = {
/* columns rows colors chars-per-pixel */
"60 30 5 1 ",
"  c #193D3F",
". c #23F023",
"X c #63C64D",
"o c None",
"O c #80FF80",
/* pixels */
"oooooooooooooooooooooooOOOOOOooooooooooooooooooooooooooooooo",
"oooooooooooooooooooooOOO....OOOooooooooooooooooooooooooooooo",
"ooooooooooooooooooooOO.OOXXXXXOOoooooooooooooooooooooooooooo",
"oooooooooooooooooooOO..OOXXXXXXOoooooooooooooooooooooooooooo",
"oooooooooooooooooooO...XXXXXXXXOoooooooooooooooooooooooooooo",
"ooooooooooooooooooo...OXXXX XX Ooooooooooooooooooooooooooooo",
"ooooooooooooooooooOOO..XXXX XX Ooooooooooooooooooooooooooooo",
"oooooooooooooooooO......XXXXXXXOoooooooooooooooooooooooooooo",
"ooooooooooooooooO..XX....XXXXXXOoooooooooooooooooooooooooooo",
"oooooooooooooooO.O.XXO........Oooooooooooooooooooooooooooooo",
"ooooooooooooooOO..XXO.O..X.X.XOOoooooooooooooooooooooooooooo",
"oooooooooooooO...X..O.OOO...OO..Oooooooooooooooooooooooooooo",
"ooooooooooooOO..X..O............Oooooooooooooooooooooooooooo",
"ooooooooooooO.....OOOOX....X....Oooooooooooooooooooooooooooo",
"ooooooooooooO..X.OO.OO.XXX.X.XXXOooooooooooooooooooooooooooo",
"ooooooooooooO.OX.OO...X..OOX..OOOooooooooooooooooooooooooooo",
"oooooooooooooO.X..O....XXOOX.XXOoooooooooooooooooooooooooooo",
"oooooooooooooOOX...OOOO....X..OOoooooooooooooooooooooooooooo",
"ooooooooooooooOO..XXX.OOOX.X.XO.Oooooooooooooooooooooooooooo",
"oooooooooooooooOO.XXXXXO...X..O.XOoooooooooooooooooooooooooo",
"ooooooooooooooooOXOOX.XXOOOOOOOO.XOooooooooooooooooooooooooo",
"oooooooooooooooooOOOXX..OXXXX.OOX.Oooooooooooooooooooooooooo",
"oooooooooooooooooO.X.XXOOXXXX.OO.XOooooooooooooooooooooooooo",
"oooooooooooooooooOOXX.XOOOOOOOOOOOoOoooooooooooooooooooooooo",
"oooooooooooooooooooOOOOO..X....OoOooOooooooooooooooooooooooo",
"ooooooooooooooooooooO..X..XX..OooOoooooooooooooooooooooooooo",
"ooooooooooooooooooooO.X....XXXOoooOooooooooooooooooooooooooo",
"oooooooooooooooooooO..XXOO.XXXOooooooooooooooooooooooooooooo",
"oooooooooooooooooooO..XXO...X.OOOooooooooooooooooooooooooooo",
"ooooooooooooooooooOO.X..O.O.XXXXOooooooooooooooooooooooooooo"
};
