/* XPM */
static char *result[] = {
/* columns rows colors chars-per-pixel */
"60 30 5 1 ",
"  c #193D3F",
". c #23F023",
"X c #63C64D",
"o c None",
"O c #80FF80",
/* pixels */
"ooooooooooooooooooooooooooooooooOOOOOOoooooooooooooooooooooo",
"ooooooooooooooooooooooooooooooOOO.XXXOOOoooooooooooooooooooo",
"oooooooooooooooooooooooooooooOO..XXXXXXOOooooooooooooooooooo",
"ooooooooooooooooooooooooooooOO.OOXXXXXXXOooooooooooooooooooo",
"ooooooooooooooooooooooooooooO..OOXXX XX Oooooooooooooooooooo",
"oooooooooooooooooooooooooooo....XXXX XX Oooooooooooooooooooo",
"oooooooooooooooooooooooooooO..O..XXXXXXXOooooooooooooooooooo",
"ooooooooooooooooooooooooooOOO.....XXXXXXOooooooooooooooooooo",
"oooooooooooooooooooooooooO..OO..........OOoooooooooooooooooo",
"ooooooooooooooooooooooooO.O.XOO...X.X.XOOOOooooooooooooooooo",
"ooooooooooooooooooooooooO..XXO.O......OO..Oooooooooooooooooo",
"oooooooooooooooooooooooO..X..O.OOO..XOO...Oooooooooooooooooo",
"ooooooooooooooooooooooOO.X..OOOX....X.....Oooooooooooooooooo",
"ooooooooooooooooooooooO.O..OOOO.XXX.X.XXX.Oooooooooooooooooo",
"ooooooooooooooooooooooO.X.OO...X....X.....Oooooooooooooooooo",
"ooooooooooooooooooooooO.X.OO.OOOXXOOX.XX.Ooooooooooooooooooo",
"ooooooooooooooooooooooOO.X.OXXXOO.OOX....Ooooooooooooooooooo",
"ooooooooooooooooooooooOOO..XXX.XOO..X.XXOooooooooooooooooooo",
"ooooooooooooooooooooooOOO..OOXXX.O..X..OOooooooooooooooooooo",
"ooooooooooooooooooooooOoO..OOXXX.O.....Ooooooooooooooooooooo",
"oooooooooooooooooooooOOoOOX.XXXXOOOOOOOOOooooooooooooooooooo",
"ooooooooooooooooooooOoooOoOOOOOOOXXXXX.OOooooooooooooooooooo",
"oooooooooooooooooooooooOooo.O..XOXXXXX.OOooooooooooooooooooo",
"ooooooooooooooooooooooooooooO.OOOOOOOOOOOooooooooooooooooooo",
"ooooooooooooooooooooooooooooOO..O...X..OOooooooooooooooooooo",
"ooooooooooooooooooooooooooooO...OXO.XX..Oooooooooooooooooooo",
"oooooooooooooooooooooooooO......OXO..X.OOooooooooooooooooooo",
"oooooooooooooooooooooooooOO....XXX.....Ooooooooooooooooooooo",
"ooooooooooooooooooooooooOoO..XX..O...XXOoooooooooooooooooooo",
"ooooooooooooooooooooooooOoO...XXX.OO.XXOoooooooooooooooooooo"
};
