/* XPM */
static char *result[] = {
/* columns rows colors chars-per-pixel */
"60 30 5 1 ",
"  c #193D3F",
". c #23F023",
"X c #63C64D",
"o c None",
"O c #80FF80",
/* pixels */
"oooooooooooooooooooooooooooooooooooOOOOOOooooooooooooooooooo",
"oooooooooooooooooooooooooooooooooOOO.XXXOOOooooooooooooooooo",
"ooooooooooooooooooooooooooooooooOO..XXXXXXOOoooooooooooooooo",
"oooooooooooooooooooooooooooooooOO..OOXXXXXXOoooooooooooooooo",
"oooooooooooooooooooooooooooooooO...OOX XX XOoooooooooooooooo",
"ooooooooooooooooooooooooooooooo....XXX XX XOoooooooooooooooo",
"ooooooooooooooooooooooooooooooOOO.OXXXXXXXXOoooooooooooooooo",
"oooooooooooooooooooooooooooooO......XXXXXX.Ooooooooooooooooo",
"ooooooooooooooooooooooooooooO..XX..........OOooooooooooooooo",
"oooooooooooooooooooooooooooO...XXO..X.X.X.O.OOoooooooooooooo",
"ooooooooooooooooooooooooooOO.OXXO.O......OO.OOoooooooooooooo",
"ooooooooooooooooooooooooooO..X..O.OOO.X.OO..OOoooooooooooooo",
"oooooooooooooooooooooooooOO.X..O.X....X....XOOoooooooooooooo",
"oooooooooooooooooooooooooO....OO.OOXX.X.XXX.OOoooooooooooooo",
"ooooooooooooooooooooooooOO.X.O...OO..OO....XOooooooooooooooo",
"ooooooooooooooooooooooooO.OX.O....XXXOO.XXOOOooooooooooooooo",
"ooooooooooooooooooooooooO..X.O...X....X...OOOooooooooooooooo",
"ooooooooooooooooooooooooO..X.O....XXX.X.XXOOOOoooooooooooooo",
"ooooooooooooooooooooooooO.....OOO...O.X...O.X.Oooooooooooooo",
"ooooooooooooooooooooooooOO..OOX.O.........O.XXXOoooooooooooo",
"ooooooooooooooooooooooooOOOXOOXXOOOOOOOOOOOOXX.XOooooooooooo",
"ooooooooooooooooooooooooOoOXXXX.XOOXXXXXX.OOX.X.Oooooooooooo",
"ooooooooooooooooooooooooOoO.XXX..XOXXXXXX.OO.X.XOooooooooooo",
"ooooooooooooooooooooooooOoOOX.XX.OOOOOOOOOOOOOOOOooooooooooo",
"ooooooooooooooooooooooooooOoOX.XOOO...X....OooOoOooooooooooo",
"ooooooooooooooooooooooooooooOOOOOOOX..X...OoooOoOooooooooooo",
"ooooooooooooooooooooooooooooOOO.O.OXX..X..OoooooOooooooooooo",
"ooooooooooooooooooooooooooooOoO.O.OXX..X..OoooooOooooooooooo",
"ooooooooooooooooooooooooooooOOOOO....OXXX.Oooooooooooooooooo",
"ooooooooooooooooooooooooooooOoOO...XXOXXX.Oooooooooooooooooo"
};
