/* XPM */
static char *result[] = {
/* columns rows colors chars-per-pixel */
"60 30 5 1 ",
"  c #193D3F",
". c #23F023",
"X c #63C64D",
"o c None",
"O c #80FF80",
/* pixels */
"ooooooooooooooooooooooooooooooooooooooOOOOOOoooooooooooooooo",
"ooooooooooooooooooooooooooooooooooooOOO.XXXOOOoooooooooooooo",
"oooooooooooooooooooooooooooooooooooOO.OOXXXXXOOooooooooooooo",
"ooooooooooooooooooooooooooooooooooOO..OOXXXXXXOooooooooooooo",
"ooooooooooooooooooooooooooooooooooO...XXX XX XOooooooooooooo",
"oooooooooooooooooooooooooooooooOOO....XXX XX XOooooooooooooo",
"ooooooooooooooooooooooooooooooO....O..OXXXXXXXOooooooooooooo",
"oooooooooooooooooooooooooooooO..XX.O....XXXXX.OOoooooooooooo",
"ooooooooooooooooooooooooooooO...XX.O..........OOOooooooooooo",
"oooooooooooooooooooooooooooOO..OXO..O..X.X.X.O.OOooooooooooo",
"oooooooooooooooooooooooooooO..X..O...O......OO.OOooooooooooo",
"ooooooooooooooooooooooooooOO.X..O....OOO.X.OO..OOOoooooooooo",
"ooooooooooooooooooooooooooO....OO..OO....X....XO.Ooooooooooo",
"ooooooooooooooooooooooooooO.X.OO...OOXXX.X.XXX.O.Ooooooooooo",
"ooooooooooooooooooooooooooO.X.OO....X...OO....XO.Ooooooooooo",
"ooooooooooooooooooooooooooOOX.OOO....XXXOO.XXOOO.Ooooooooooo",
"ooooooooooooooooooooooooooO.X.OoO...X....X...OO..OOooooooooo",
"oooooooooooooooooooooooooO....OoOO...XXO.X.XXOO.XX.Ooooooooo",
"oooooooooooooooooooooooooO....OOoO.......X...O.XXXXXOooooooo",
"oooooooooooooooooooooooooO.OOX.OooO..........O.XXXX.XOoooooo",
"oooooooooooooooooooooooooOXOOXXOOoOOOOOOOOOOOOOOXX.X.Ooooooo",
"oooooooooooooooooooooooooOXXXX.XOOO..XXXXXXX.OOOX.X.XOoooooo",
"oooooooooooooooooooooooooO.XXX..XOO..XXXXXXX.OOoOOOOOooooooo",
"oooooooooooooooooooooooooOOX.XX.OOOOOOOOOOOOOOOoooOoOooooooo",
"oooooooooooooooooooooooooOoOX.XOOO...XX.......OoooOoOooooooo",
"oooooooooooooooooooooooooOoOOOOOOO....XXX.X..OOoooOoOooooooo",
"oooooooooooooooooooooooooOoOOooooO....XXXOX.OOooooooOooooooo",
"oooooooooooooooooooooooooooOoooooOO...X...OXXOooooooOooooooo",
"oooooooooooooooooooooooooooOoooooOoO...XXXXXXOoooooooooooooo",
"oooooooooooooooooooooooooooOoooooOooO..XXXXOOooooooooooooooo"
};
