/* XPM */
static char *result[] = {
/* columns rows colors chars-per-pixel */
"30 32 8 1 ",
"  c black",
". c #181818",
"X c #222222",
"o c #2C2C2C",
"O c #4C4C4C",
"+ c #8E8E8E",
"@ c gray59",
"# c None",
/* pixels */
"#####.XXXXXXXXX XXXXXXXXX#####",
"###...XXXXXXXXX XXXXXXXXX..###",
"##..XXXXXXXXXXX XXXXXXXXXXX..#",
"##XXXXXXXXXXXXX XXXXXXXXXXXX.#",
"#.XXXXXXX++++++ ++++++XXXXXXX#",
"#.XXXXXXX++++++ ++++++XXXXXXX#",
"XXXXXX++O++++++ ++++++O++XXXXX",
"XXXXX+++O++++++ ++++++O++OXXXX",
"XXXXX+++O++++++ ++++++O++OXXXX",
"XXXXX+++O++++++ ++++++O++OXXXX",
"XXX+O+++O++++++ ++++++O++OOXXX",
"XXX+O+++O++++++ ++++++O++OOXXX",
"XX++O+++O++++++ ++++++O++OO++X",
"XX++O+++O++++++ ++++++O++OO++X",
"XX++O+++O++++++ ++++++O++OO++X",
"XX++O+++O++++++ ++++++O++OO++X",
"                              ",
" @@@@@@@@@@@@@@ @@@@@@@@@@@@@ ",
"                              ",
"o+++O+++O++++++ ++++++O++OO++o",
"o+++O+++O++++++ ++++++O++OO++o",
"o+++O+++O++++++ ++++++O++OO++o",
"o+++O+++O++++++ ++++++O++OO++o",
"o+++O+++O++++++ ++++++O++OO++o",
"o+++O+++O++++++ ++++++O++OO++o",
"o+++O+++O++++++ ++++++O++OO++o",
"o+++O+++O++++++ ++++++O++OO++o",
"                              ",
" @@@@@@@@@@@@@@ @@@@@@@@@@@@@ ",
"                              ",
"o+++O+++O++++++ ++++++O++OO++o",
"............... .............."
};
