/* XPM */
static char *result[] = {
/* columns rows colors chars-per-pixel */
"30 30 5 1 ",
"  c #FCFCFC",
". c None",
"X c None",
"o c None",
"O c None",
/* pixels */
"                              ",
" ooooooooooO OoooooXoooXooooo ",
" oXXXXoXXXoo ooXXoXXXoXXXXoXo ",
" XXXXXXXX..o o..XXXXXXXXXXXXX ",
" oXX........ ......XX.....XXX ",
" XX........   .............XX ",
"                              ",
" oooooooooooooooooooooooooooo ",
" oooooooooooooXXooooooooooooo ",
" oXXXoXXoXXXoXXXXoXooXooXoXXo ",
" XoXXXXXXX.XXX...XXXXXXXXXXoX ",
" XXXXX.XX...XXXXXX..XX.X.XXXX ",
" oXXX..........XX.........XXX ",
" XX........................XX ",
"                              ",
" oooooooo   ooooooooooooooooo ",
" oooooXooo ooooooXooooooooooo ",
" ooXoXXXoo ooXXoXXXXoXXoooXoo ",
" oXX.XXXXo oXXXXX.XX.XXXoXoXo ",
" XoXX.XXX. .XXXX..XXX.XXXXXXX ",
" XXXX..X.. ..X...XX.XXX..XXXX ",
" oXX...... ..........X....XXX ",
" X.......   ...............XX ",
"                              ",
" oooooooooooooooooooooooooooo ",
" ooXooooooooXoooXoooooooooooo ",
" oooXoooXXoXXXoXXXoXoooXXooXo ",
" XXXo.o.XXXXXX.XXXXXXoXXXXXoo ",
" XXXX....X..XXXXX..X.XX.XXXXX ",
"                              "
};
