/* XPM */
static char *result[] = {
/* columns rows colors chars-per-pixel */
"30 30 5 1 ",
"  c None",
". c None",
"X c None",
"o c None",
"O c None",
/* pixels */
"oOOOOOOOOOOo oOOOOOOOOOOOOOOOo",
"OooooooooooO OoooooXoooXoooooO",
"ooXXXXoXXXoo ooXXoXXXoXXXXoXoo",
"oXXXXXXXX..o o..XXXXXXXXXXXXXo",
"XoXX........ ......XX.....XXXX",
".XX........   .............XX.",
"                              ",
"XooooooooooooooooooooooooooooX",
"ooooooooooooooXXoooooooooooooo",
"ooXXXoXXoXXXoXXXXoXooXooXoXXoo",
"oXoXXXXXXX.XXX...XXXXXXXXXXoXo",
"oXXXXX.XX...XXXXXX..XX.X.XXXXX",
"XoXXX..........XX.........XXXX",
".XX........................XX.",
"                              ",
"Xoooooooo   oooooooooooooooooX",
"ooooooXooo ooooooXoooooooooooo",
"oooXoXXXoo ooXXoXXXXoXXoooXooo",
"ooXX.XXXXo oXXXXX.XX.XXXoXoXoo",
"oXoXX.XXX. .XXXX..XXX.XXXXXXXo",
"oXXXX..X.. ..X...XX.XXX..XXXXX",
"XoXX...... ..........X....XXXX",
".X.......   ...............XX.",
"                              ",
"XooooooooooooooooooooooooooooX",
"oooXooooooooXoooXooooooooooooo",
"ooooXoooXXoXXXoXXXoXoooXXooXoo",
"oXXXo.o.XXXXXX.XXXXXXoXXXXXooo",
"XXXXX....X..XXXXX..X.XX.XXXXXX",
".XXX...........X.........XXXX."
};
