/* XPM */
static char *result[] = {
/* columns rows colors chars-per-pixel */
"30 30 5 1 ",
"  c #193D3F",
". c #23F023",
"X c #63C64D",
"o c None",
"O c #80FF80",
/* pixels */
"oooooooooooOOOOOOooooooooooooo",
"oooooooooOOOXXX.OOOooooooooooo",
"ooooooooOOXXXXXX..OOoooooooooo",
"ooooooooOXXXXXXOO..OOooooooooo",
"ooooooooOX XX XOO...Oooooooooo",
"ooooooooOX XX XXX....ooooooooo",
"ooooooooOXXXXXXXXO.OOOoooooooo",
"ooooooooO.XXXXXX......Oooooooo",
"oooooooOO..........XX..Ooooooo",
"ooooooOO.O.X.X.X..OXX...Oooooo",
"ooooooOO.OO......O.OXXO.OOoooo",
"ooooooOO..OO.X.OOO.O..X..Ooooo",
"ooooooOOX....X....X.O..X.OOooo",
"ooooooOO.XXX.X.XXOO.OO....Oooo",
"oooooooOX....OO..OO...O.X.OOoo",
"oooooooOOOXX.OOXXX....O.XO.Ooo",
"oooooooOOO...X....X...O.X..Ooo",
"ooooooOOOOXX.X.XXX....O.X..Ooo",
"oooooO.X.O...X.O...OOO.....Ooo",
"ooooOXXX.O.........O.XOO..OOoo",
"oooOX.XXOOOOOOOOOOOOXXOOXOOOoo",
"oooO.X.XOO.XXXXXXOOX.XXXXOoOoo",
"oooOX.X.OO.XXXXXXOX..XXX.OoOoo",
"oooOOOOOOOOOOOOOOOO.XX.XOOoOoo",
"oooOoOooO....X...OOOX.XOoOoooo",
"oooOoOoooO...X..XOOOOOOOoooooo",
"oooOoooooO..X..XXO.O.OOOoooooo",
"oooOoooooO..X..XXO.O.OoOoooooo",
"oooooooooO.XXXO....OOOOOoooooo",
"oooooooooO.XXXOXX...OOoOoooooo"
};
