/* XPM */
static char *result[] = {
/* columns rows colors chars-per-pixel */
"30 30 6 1 ",
"  c #193D3F",
". c #23F023",
"X c #40D440",
"o c #63C64D",
"O c None",
"+ c #80FF80",
/* pixels */
"OOOOOOOOOO++++++++OOOOOOOOOOOO",
"OOOOOOOOO++......+++OOOOOOOOOO",
"OOOOOOOO+...+++....+++OOOOOOOO",
"OOOOOOO...+++ooo.+...+++OOOOOO",
"OOOOOO+..++oooooo......++OOOOO",
"OOOOO+...+oooooo++..+....+OOOO",
"OOOO++....o oo o++..+.o...+OOO",
"OOO++oo+..o oo ooo..+ooo...+OO",
"OO++.oo++.ooooo+o..++oooo...+O",
"OO+..ooo++.oooooo.++ooo+o...+0",
"O+..+.ooo+++....+++.oo.+++o..0",
"O+.o++.+....o.o.o.......+++o+0",
"++o+++..+...............+O+++0",
"+o.++++..++ooo.o.oooo++++++++o",
"+..+OO+++......o.......++OO+.+",
"+..+OOO++++ooo.o.ooo++++OOO+.+",
"+..+OOOO++.....o......+OOOO+.+",
"+..+OOOO++oooo.o.oooo++OOO++.+",
"+oo.+OOOO+.....+.....+OOO++..+",
"+o++o+OOO+oooo.X.ooo++OOO+..oo",
"+o++.o+OO++++++++++++OOO++ooo0",
"+oooo.+OO++.ooooooo.+OO++o.o00",
"+.o..o+O++..ooooooo.+OO+..++00",
"++++++OO++++++++++++++O++.++00",
"O+OOOOO+...o......o++.+O++o000",
"O+OOOO+..+o..+++...++.+O+++000",
"O+OOOO+..ooo++O++.ooo.+OO+OOOO",
"OOOOOO++.oo+++OO++ooo.+OO+OOOO",
"OOOOOOO+++++O+OOO+++++OOOOOOOO",
"OOOOOOO+....+OOOOO+..+OOOOOOOO"
};