/* XPM */
static char *result[] = {
/* columns rows colors chars-per-pixel */
"32 32 9 1 ",
"  c #633918",
". c #AD5C39",
"X c #AD8463",
"o c #CE9484",
"O c #F68187",
"+ c #EFB5A5",
"@ c #F7D6CE",
"# c #FFF0ED",
"$ c None",
/* pixels */
"$$$$$$$$$$$$$$$$$$$$$$$$$$$$$$$$",
"$$$$$$$$$$$$$$$$$$$$$$$$$$$$$$$$",
"$$$$$$$$$$$$$$$$$$$$$$$$$$$$$$$$",
"$$$$$$$$$$$$$......$$$$$$$$$$$$$",
"$$$$$$$$$$$..++++++..$$$$$$$$$$$",
"$$$$$$$$$$.++@@@@@@++.$$$$$$$$$$",
"$$$$$$$$$.+@@@@@@@@@@+.$$$$$$$$$",
"$$$$$$$$$.+@@@@@@@@@@+.$$$$$$$$$",
"$$$$$$$$$.+@@ @@@@ @@+.$$$$$$$$$",
"$$$$$$$$$.@@@X@@@@X@@@.$$$$$$$$$",
"$$$$$$$$$.@@@X@##@X@@@.$$$$$$$$$",
"$$$$$$$$$.@OO@@@@@@OO@.$$$$$$$$$",
"$$$$$$$$$.@@@@o@@o@@@@.$$$$$$$$$",
"$$$$$$$$$$.+@@@oo@@@+.$$$$$$$$$$",
"$$$$$$$$$$$..+@@@@+..$$$$$$$$$$$",
"$$$$$$$$$$$$$......$$$$$$$$$$$$$",
"$$$$$$$$$$$..oooooo..$$$$$$$$$$$",
"$$$$$$$$$$.@@@@@@@@@@.$$$$$$$$$$",
"$$$$$$$$$.@@+@@@@@@+@@.$$$$$$$$$",
"$$$$$$$$.@@.@@@++@@@.@@.$$$$$$$$",
"$$$$$$..+@+.@@@++@@@.+@+..$$$$$$",
"$$$$$.@@@+..+++@@+++..+@@@.$$$$$",
"$$$$$.+++.$.@@@@@@@@.$.+++.$$$$$",
"$$$$$$...$$.@@@@@@@@.$$...$$$$$$",
"$$$$$$$$$$$.@+@@@@+@.$$$$$$$$$$$",
"$$$$$$$$$$.@@@+..+@@@.$$$$$$$$$$",
"$$$$$$$$$$.@@@.$$.@@@.$$$$$$$$$$",
"$$$$$$$$$$.@@@.$$.@@@.$$$$$$$$$$",
"$$$$$$$$$$.+++.$$.+++.$$$$$$$$$$",
"$$$$$$$$$.@@@@.$$.@@@@.$$$$$$$$$",
"$$$$$$$$$.++++.$$.++++.$$$$$$$$$",
"$$$$$$$$$......$$......$$$$$$$$$"
};
