/* XPM */
static char *result[] = {
/* columns rows colors chars-per-pixel */
"28 28 7 1 ",
"  c #FCFCFC",
". c #FCFCFC",
"X c None",
"o c None",
"O c #FCFCFC",
"+ c None",
"@ c None",
/* pixels */
"@@@@@@@@@@OOOOOOOO@@@@@@@@@@",
"@@@@@@@OOO++++++++...@@@@@@@",
"@@@@@OO+++++++++ooooo..@@@@@",
"@@@@O++++++++++oooo++++.@@@@",
"@@@O+++++++......o++++++.@@@",
"@@O++++++..+++++...++++++.@@",
"@@O++++..  +oooo.  ..++++.@@",
"@O++++.. XX+oooo. X ..++o+.@",
"@O++++. Xoo+oooo. oX .+ooo.@",
"@O+++. Xooo+oooo. ooX .ooo.@",
"O++++. Xooo+oooo. ooX .ooo+.",
"O+++. Xoooo+oooo. oooX .ooo.",
"O+++. Xoooo+oooo. oooX .ooo.",
"O+++. ooooo+oooo. oooo .ooo.",
"O+++. ooooo+oooo. oooo .ooo.",
"O+++. Xoooo+oooo. oooX .ooo.",
"O+++. XXXoo+oooo. oXXX .ooo.",
"O++++. XXXX+oooo. XXX .oooo.",
"@O+++. XXXX+oooo. XXX .ooo.@",
"@O++++. XXX+oooo. XX .oooo.@",
"@O++++.. XX+oooo. X ..ooo+.@",
"@@O++++..  ......  ..+ooo.@@",
"@@O++++++..      ..+++ooo.@@",
"@@@O+++++++......+++++o+.@@@",
"@@@@O++++++++ooo+++++o+.@@@@",
"@@@@@OO+++++ooo+++++o..@@@@@",
"@@@@@@@OOOooo+++++...@@@@@@@",
"@@@@@@@@@@........@@@@@@@@@@"
};
