/* XPM */
static char *result[] = {
/* columns rows colors chars-per-pixel */
"32 32 13 1 ",
"  c black",
". c #181818",
"X c #222222",
"o c gray15",
"O c #2C2C2C",
"+ c #414141",
"@ c #4C4C4C",
"# c gray31",
"$ c #515151",
"% c #797979",
"& c #8E8E8E",
"* c gray59",
"= c None",
/* pixels */
"===$XX====================XX$===",
"===.XX====================XX.===",
"==.XXX====================XXX.==",
"==.XXX====================XXX.==",
" #XXX&====================&XXX# ",
"o#XXX&====================&XXX#o",
"oXXX&&====================&&XXXo",
"oXXX&&====================&&XXXo",
"+XXX&&====================&&XXX+",
"%XXX&&====================&&XXX%",
"#XX@&&====================&&@XX#",
"#XX@&&====================&&@XX#",
"#X&@&&====================&&@&X#",
"#X&@&&====================&&@&X#",
"#X&@  ====================  @&X#",
"#X  **====================**  X#",
"  **  ====================  **  ",
"    &&====================&&    ",
"  &@&&====================&&@&  ",
"#O&@&&====================&&@&O#",
"#O&@&&====================&&@&O#",
"#O&@&&====================&&@&O#",
"#O&@&&====================&&@&O#",
"#O&@&&====================&&@&O#",
"#O&@&&====================&&@&O#",
"#O&@&&====================&&@&O#",
"#O&@  ====================  @&O#",
"#O  **====================**  O#",
"  **  ====================  **  ",
"    &.====================.&    ",
"#O&.========================.&O#",
"#.============================.#"
};
