/* XPM */
static char *result[] = {
/* columns rows colors chars-per-pixel */
"48 48 3 1 ",
"  c black",
". c white",
"X c None",
/* pixels */
"XX............................................XX",
"X..... ...  ......  ... ...  . . ..  ..  ......X",
".....                                      .....",
"...   .   ...  ..  ....  ... . . .. ... ..   ...",
"... . .. ... ...  ..  . ..  ...   . .. ..  . ...",
"..                                            ..",
"..  .. ... .. ....  ... . .  ... ... ... ...  ..",
"..                                            ..",
".  .. .. ... ..  ..  .... . ...  ... . ... ..  .",
".  .  .. . .                         .. . ...  .",
"..                                            ..",
".. ... . .                            ... ...  .",
".                                             ..",
".. ...  .                              . ....  .",
".                                              .",
".. ..  ..                              .  ... ..",
".. .  ..                              .. .. .  .",
"..                                            ..",
".  . .. .             .                . .. . ..",
".                   . ...  ..                  .",
".. .. ...              .               .. . . ..",
"..                .. ..  ...                  ..",
".  ... ..                               .. .. ..",
".   ..  .         . .. ... . .         . .. . ..",
".                  ..      .                   .",
".. .... .         ..  . ..  ..        . . ..  ..",
"..                   .                        ..",
".. .  ..           . ..  ...           . .. .  .",
".                  .      .                    .",
".. ...  .            ....             .. . .. ..",
"..                                            ..",
".  .. ...                              . .. . ..",
".  . .. ..                             ... .. ..",
"..                                            ..",
".. .. .. .                            .... ..  .",
"..                                            ..",
".  ..  .. .                          . .. ...  .",
".   .. . ..                          .. .. .  ..",
"..                                            ..",
".. ....  . ..                       .... . ..  .",
"..                                            ..",
".  .... ... .... . ... ... . ... ... .... ...  .",
"..                                             .",
".. .... .  ...  .. ... .. . ..  ..  . ..   .. ..",
"... ..  ..  . .. ..  . .  ... ... .. ... ... ...",
"...                                          ...",
"X....  .... ....   ..... .... .... ......  ....X",
"XX............................................XX"
};
